<svg width="200" height="200" viewBox="0 0 200 200" fill="none" xmlns="http://www.w3.org/2000/svg">
<g clip-path="url(#clip0)">
<path d="M199.28 156.97L187.664 123.164C193.263 111.718 196.222 98.9886 196.242 86.1803C196.277 63.9096 187.66 42.8521 171.98 26.8872C156.296 10.9192 135.397 1.93056 113.131 1.57782C90.0432 1.21298 68.3416 9.99503 52.0263 26.3099C36.2943 42.0416 27.5685 62.7811 27.2923 84.9436C11.7868 96.6179 2.63482 114.819 2.6649 134.26C2.67935 143.358 4.72701 152.401 8.6071 160.579L0.60591 183.863C-0.769483 187.866 0.235207 192.212 3.22818 195.205C5.33444 197.312 8.11139 198.433 10.9673 198.433C12.1688 198.433 13.3845 198.235 14.57 197.827L37.8548 189.826C46.0326 193.706 55.0759 195.754 64.1736 195.768C64.2064 195.768 64.2377 195.768 64.2705 195.768C84.001 195.768 102.341 186.38 113.973 170.494C126.077 170.175 138.053 167.245 148.88 161.949L182.686 173.565C184.095 174.049 185.539 174.285 186.967 174.285C190.361 174.285 193.661 172.952 196.164 170.448C199.721 166.892 200.915 161.727 199.28 156.97ZM64.2697 183.864C64.2443 183.864 64.2174 183.864 64.192 183.864C56.1396 183.852 48.1431 181.866 41.0685 178.123C39.6138 177.354 37.906 177.221 36.3505 177.756L12.4743 185.96L20.6786 162.084C21.213 160.528 21.0802 158.82 20.3106 157.366C16.5677 150.291 14.5825 142.295 14.57 134.242C14.5501 121.289 19.5888 109.012 28.4001 99.8194C31.2782 117.365 39.6404 133.533 52.6021 146.264C65.4681 158.901 81.6408 166.947 99.0909 169.578C89.8768 178.659 77.4565 183.864 64.2697 183.864ZM187.746 162.03C187.407 162.369 187.005 162.461 186.554 162.306L150.363 149.87C149.735 149.654 149.081 149.547 148.429 149.547C147.469 149.547 146.512 149.779 145.646 150.238C135.312 155.704 123.636 158.604 111.877 158.621C111.839 158.621 111.803 158.621 111.765 158.621C72.365 158.621 39.8208 126.616 39.1966 87.2256C38.8822 67.3877 46.4283 48.7435 60.4443 34.7275C74.4604 20.7115 93.1077 13.1681 112.943 13.4806C152.371 14.106 184.398 46.7103 184.338 86.1616C184.319 97.9202 181.42 109.597 175.954 119.93C175.185 121.384 175.052 123.092 175.586 124.648L188.022 160.838C188.177 161.291 188.084 161.693 187.746 162.03Z" fill="#1866F3"/>
<path d="M147.224 54.4971H76.302C73.0145 54.4971 70.3496 57.1623 70.3496 60.4494C70.3496 63.7369 73.0149 66.4018 76.302 66.4018H147.224C150.511 66.4018 153.176 63.7365 153.176 60.4494C153.176 57.1623 150.511 54.4971 147.224 54.4971Z" fill="#1866F3"/>
<path d="M147.224 78.978H76.302C73.0145 78.978 70.3496 81.6433 70.3496 84.9304C70.3496 88.2175 73.0149 90.8827 76.302 90.8827H147.224C150.511 90.8827 153.176 88.2175 153.176 84.9304C153.176 81.6433 150.511 78.978 147.224 78.978Z" fill="#1866F3"/>
<path d="M119.923 103.458H76.301C73.0135 103.458 70.3486 106.123 70.3486 109.41C70.3486 112.698 73.0139 115.363 76.301 115.363H119.923C123.21 115.363 125.875 112.697 125.875 109.41C125.875 106.123 123.211 103.458 119.923 103.458Z" fill="#1866F3"/>
</g>
<defs>
<clipPath id="clip0">
<rect width="200" height="200" fill="white"/>
</clipPath>
</defs>
</svg>
