<svg width="200" height="200" viewBox="0 0 200 200" fill="none" xmlns="http://www.w3.org/2000/svg">
<path d="M200 118.75C200 113.742 198.008 109.075 194.575 105.633C198.467 101.375 200.45 95.6666 199.908 89.7252C198.933 79.1334 189.391 70.8334 178.175 70.8334H126.7C129.25 63.0916 133.333 48.9002 133.333 37.5002C133.333 19.4252 117.975 4.16699 108.333 4.16699C99.6832 4.16699 93.4914 9.04199 93.2332 9.24199C92.2414 10.0338 91.6664 11.2338 91.6664 12.5002V40.7584L67.6582 92.7502L66.6664 93.2584V91.6666C66.6664 89.3666 64.7996 87.4998 62.4996 87.4998H20.8332C9.3418 87.5002 0 96.842 0 108.333V175C0 186.492 9.3418 195.833 20.8332 195.833H45.8332C54.8414 195.833 62.5414 190.083 65.4414 182.058C72.375 185.625 81.7082 187.5 87.5 187.5H163.992C173.067 187.5 181.009 181.383 182.875 172.95C183.833 168.6 183.275 164.225 181.375 160.425C187.525 157.333 191.667 150.975 191.667 143.75C191.667 140.8 190.992 137.975 189.717 135.425C195.867 132.325 200 125.975 200 118.75ZM182.425 129.033C180.817 129.225 179.458 130.317 178.942 131.858C178.434 133.4 178.859 135.092 180.042 136.208C182.159 138.2 183.334 140.883 183.334 143.75C183.334 149.008 179.359 153.425 174.1 154.033C172.492 154.225 171.134 155.317 170.617 156.858C170.109 158.4 170.534 160.092 171.717 161.208C174.459 163.792 175.559 167.417 174.734 171.15C173.709 175.8 169.192 179.167 163.992 179.167H87.5C80.7332 179.167 69.3832 175.992 65.45 172.05C64.2582 170.867 62.4582 170.517 60.9082 171.15C59.35 171.792 58.3332 173.317 58.3332 175C58.3332 181.892 52.725 187.5 45.8332 187.5H20.8332C13.9414 187.5 8.3332 181.892 8.3332 175V108.333C8.3332 101.442 13.9414 95.8334 20.8332 95.8334H58.3332V100C58.3332 101.442 59.0832 102.783 60.3164 103.55C61.5332 104.283 63.0664 104.358 64.3664 103.725L72.6996 99.5584C73.5414 99.1416 74.2164 98.4416 74.6164 97.5834L99.6164 43.4166C99.8664 42.8666 99.9996 42.2666 99.9996 41.6666V14.7584C101.733 13.8002 104.742 12.5002 108.333 12.5002C112.9 12.5002 125 23.8502 125 37.5002C125 52.167 117.017 73.3084 116.942 73.517C116.459 74.792 116.625 76.2338 117.4 77.367C118.183 78.492 119.467 79.167 120.833 79.167H178.175C185.125 79.167 191.025 84.142 191.608 90.492C192.05 95.242 189.766 99.7588 185.675 102.284C184.4 103.067 183.642 104.484 183.7 105.992C183.758 107.5 184.625 108.85 185.958 109.542C189.483 111.334 191.666 114.867 191.666 118.75C191.667 124.008 187.692 128.425 182.425 129.033Z" fill="#1866F3"/>
<path d="M62.4998 95.833C60.1998 95.833 58.333 97.6998 58.333 99.9998V175C58.333 177.3 60.1998 179.167 62.4998 179.167C64.7998 179.167 66.6666 177.3 66.6666 175V99.9998C66.6666 97.6998 64.7998 95.833 62.4998 95.833Z" fill="#1866F3"/>
</svg>
