<svg width="855" height="256" viewBox="0 0 855 256" fill="none" xmlns="http://www.w3.org/2000/svg">
<g clip-path="url(#clip0_1_5)">
<rect width="855" height="256" fill="white"/>
<path d="M191.656 167V64.76H235C239.704 64.76 244.024 65.72 247.96 67.64C251.896 69.56 255.304 72.152 258.184 75.416C261.16 78.68 263.464 82.328 265.096 86.36C266.728 90.392 267.544 94.52 267.544 98.744C267.544 104.504 266.2 109.976 263.512 115.16C260.824 120.344 257.128 124.568 252.424 127.832C247.72 131.096 242.152 132.728 235.72 132.728H211.528V167H191.656ZM211.528 115.304H234.568C236.968 115.304 239.128 114.632 241.048 113.288C242.968 111.944 244.504 110.024 245.656 107.528C246.808 104.936 247.384 102.008 247.384 98.744C247.384 95.192 246.712 92.168 245.368 89.672C244.12 87.176 242.44 85.304 240.328 84.056C238.312 82.808 236.104 82.184 233.704 82.184H211.528V115.304ZM301.714 64.76H321.874L359.458 167H339.01L329.506 141.512H293.794L284.434 167H263.986L301.714 64.76ZM325.906 127.544L311.794 85.352L297.106 127.544H325.906ZM370.672 167V64.76H390.544V149.576H442.672V167H370.672ZM538.141 167V99.896L511.933 149.864H500.845L474.637 99.896V167H454.765V64.76H476.077L506.317 122.936L536.845 64.76H558.013V167H538.141Z" fill="#190933"/>
<path d="M622.136 191.72C615.512 191.72 609.224 190.376 603.272 187.688C597.416 185 592.232 181.304 587.72 176.6C583.304 171.8 579.848 166.232 577.352 159.896C574.856 153.56 573.608 146.696 573.608 139.304C573.608 132.296 574.856 125.72 577.352 119.576C579.848 113.336 583.352 107.864 587.864 103.16C592.376 98.456 597.656 94.76 603.704 92.072C609.752 89.384 616.328 88.04 623.432 88.04C633.032 88.04 641.24 90.104 648.056 94.232C654.968 98.264 660.152 103.64 663.608 110.36L648.776 121.304C646.184 116.216 642.536 112.328 637.832 109.64C633.224 106.952 628.184 105.608 622.712 105.608C618.392 105.608 614.456 106.52 610.904 108.344C607.352 110.168 604.28 112.664 601.688 115.832C599.096 119 597.08 122.648 595.64 126.776C594.296 130.904 593.624 135.272 593.624 139.88C593.624 144.776 594.344 149.288 595.784 153.416C597.32 157.544 599.432 161.144 602.12 164.216C604.904 167.288 608.12 169.736 611.768 171.56C615.416 173.288 619.448 174.152 623.864 174.152C629.048 174.152 633.992 172.808 638.696 170.12C643.496 167.432 647.96 163.496 652.088 158.312V177.896C643.544 187.112 633.56 191.72 622.136 191.72ZM650.648 152.984H630.056V138.44H667.064V191H650.648V152.984ZM684 191V88.76H703.872V191H684ZM767.683 191.72C761.059 191.72 754.771 190.376 748.819 187.688C742.963 185 737.779 181.304 733.267 176.6C728.851 171.8 725.395 166.232 722.899 159.896C720.403 153.56 719.155 146.696 719.155 139.304C719.155 132.296 720.403 125.72 722.899 119.576C725.395 113.336 728.899 107.864 733.411 103.16C737.923 98.456 743.203 94.76 749.251 92.072C755.299 89.384 761.875 88.04 768.979 88.04C778.579 88.04 786.787 90.104 793.603 94.232C800.515 98.264 805.699 103.64 809.155 110.36L794.323 121.304C791.731 116.216 788.083 112.328 783.379 109.64C778.771 106.952 773.731 105.608 768.259 105.608C763.939 105.608 760.003 106.52 756.451 108.344C752.899 110.168 749.827 112.664 747.235 115.832C744.643 119 742.627 122.648 741.187 126.776C739.843 130.904 739.171 135.272 739.171 139.88C739.171 144.776 739.891 149.288 741.331 153.416C742.867 157.544 744.979 161.144 747.667 164.216C750.451 167.288 753.667 169.736 757.315 171.56C760.963 173.288 764.995 174.152 769.411 174.152C774.595 174.152 779.539 172.808 784.243 170.12C789.043 167.432 793.507 163.496 797.635 158.312V177.896C789.091 187.112 779.107 191.72 767.683 191.72ZM796.195 152.984H775.603V138.44H812.611V191H796.195V152.984Z" fill="#0E99B7"/>
<g clip-path="url(#clip1_1_5)">
<path d="M113.774 39.3811C114.256 39.3807 114.727 39.2361 115.127 38.966C115.526 38.6959 115.835 38.3126 116.015 37.8652C116.194 37.4179 116.236 36.9271 116.135 36.4559C116.033 35.9846 115.793 35.5545 115.445 35.2208C115.098 34.8871 114.658 34.665 114.183 34.5831C113.708 34.5012 113.219 34.5633 112.78 34.7613C112.34 34.9593 111.97 35.2842 111.717 35.6943C111.463 36.1044 111.338 36.5809 111.358 37.0625C111.383 37.6863 111.649 38.2761 112.099 38.7083C112.55 39.1405 113.15 39.3816 113.774 39.3811Z" fill="#190933"/>
<path d="M94.3766 39.3811C95.0175 39.3811 95.6321 39.1265 96.0853 38.6733C96.5385 38.2201 96.7931 37.6054 96.7931 36.9645C96.7931 36.3236 96.5385 35.709 96.0853 35.2558C95.6321 34.8026 95.0175 34.548 94.3766 34.548C93.7356 34.548 93.121 34.8026 92.6678 35.2558C92.2146 35.709 91.96 36.3236 91.96 36.9645C91.96 37.6054 92.2146 38.2201 92.6678 38.6733C93.121 39.1265 93.7356 39.3811 94.3766 39.3811Z" fill="#190933"/>
<path d="M104.5 40.3281C106.304 40.3281 107.766 38.8661 107.766 37.0625C107.766 35.2589 106.304 33.7969 104.5 33.7969C102.696 33.7969 101.234 35.2589 101.234 37.0625C101.234 38.8661 102.696 40.3281 104.5 40.3281Z" fill="#190933"/>
<path d="M117.562 233C135.687 233 153.484 218.435 153.484 203.609V177.844C153.496 175.628 152.78 173.47 151.447 171.7C150.114 169.93 148.237 168.647 146.104 168.047V37.0625C146.104 33.5981 144.728 30.2756 142.278 27.8259C139.828 25.3762 136.506 24 133.042 24H75.1094C71.645 24 68.3225 25.3762 65.8728 27.8259C63.4231 30.2756 62.0469 33.5981 62.0469 37.0625V45.8144C61.1808 45.8144 60.3502 46.1584 59.7377 46.7709C59.1253 47.3833 58.7812 48.2139 58.7812 49.08V58.8769C58.7812 59.743 59.1253 60.5736 59.7377 61.186C60.3502 61.7984 61.1808 62.1425 62.0469 62.1425V65.4081C61.1808 65.4081 60.3502 65.7522 59.7377 66.3646C59.1253 66.977 58.7812 67.8077 58.7812 68.6738V78.4706C58.7812 79.3367 59.1253 80.1673 59.7377 80.7798C60.3502 81.3922 61.1808 81.7363 62.0469 81.7363V167.688C62.0469 171.152 63.4231 174.474 65.8728 176.924C68.3225 179.374 71.645 180.75 75.1094 180.75H81.6406V203.609C81.6406 218.435 99.4383 233 117.562 233ZM146.953 177.844V203.609C146.953 214.941 132.127 226.469 117.562 226.469C102.998 226.469 88.1719 214.941 88.1719 203.609V161.711C90.0828 162.387 91.7371 163.639 92.9068 165.294C94.0766 166.949 94.7042 168.926 94.7031 170.953V197.078C94.7031 197.944 95.0472 198.775 95.6596 199.387C96.272 200 97.1027 200.344 97.9688 200.344C98.8348 200.344 99.6655 200 100.278 199.387C100.89 198.775 101.234 197.944 101.234 197.078V118.703C101.234 118.231 101.336 117.765 101.534 117.337C101.731 116.908 102.019 116.528 102.377 116.221C102.741 115.907 103.169 115.676 103.632 115.546C104.095 115.417 104.581 115.391 105.055 115.47C105.852 115.665 106.556 116.129 107.05 116.784C107.544 117.438 107.797 118.243 107.766 119.062V159.425C107.757 160.274 108.01 161.105 108.489 161.806C108.967 162.507 109.65 163.044 110.443 163.344C111.247 163.659 112.128 163.722 112.968 163.523C113.808 163.325 114.568 162.875 115.146 162.234C115.513 161.823 115.978 161.512 116.497 161.329C117.017 161.147 117.574 161.098 118.118 161.189C118.914 161.384 119.619 161.848 120.113 162.502C120.606 163.157 120.859 163.962 120.828 164.781V170.953C120.828 171.819 121.172 172.65 121.785 173.262C122.397 173.875 123.228 174.219 124.094 174.219C124.96 174.219 125.79 173.875 126.403 173.262C127.015 172.65 127.359 171.819 127.359 170.953C127.352 170.473 127.451 169.998 127.649 169.561C127.847 169.123 128.138 168.735 128.503 168.423C128.868 168.111 129.297 167.884 129.759 167.757C130.222 167.629 130.707 167.606 131.18 167.688C131.977 167.882 132.681 168.346 133.175 169.001C133.669 169.655 133.922 170.46 133.891 171.28V177.484C133.891 178.35 134.235 179.181 134.847 179.794C135.46 180.406 136.29 180.75 137.156 180.75C138.022 180.75 138.853 180.406 139.465 179.794C140.078 179.181 140.422 178.35 140.422 177.484C140.44 177.182 140.506 176.884 140.618 176.603C140.687 176.327 140.797 176.062 140.944 175.819C141.082 175.593 141.246 175.385 141.434 175.198L141.859 174.839L142.447 174.513L142.936 174.317C143.368 174.235 143.811 174.235 144.243 174.317C145.028 174.509 145.724 174.964 146.217 175.605C146.709 176.246 146.969 177.035 146.953 177.844ZM75.1094 30.5312H133.237C134.652 30.5514 136.022 31.0304 137.141 31.8961C138.26 32.7619 139.067 33.9675 139.442 35.3317H133.237C131.605 35.3406 129.995 35.7147 128.526 36.4267C127.057 37.1387 125.765 38.1705 124.747 39.4464C124.042 40.4246 123.122 41.2279 122.057 41.7941C120.993 42.3603 119.813 42.6743 118.607 42.712H89.5434C88.3429 42.6743 87.1673 42.36 86.1081 41.7936C85.0489 41.2272 84.1347 40.4239 83.4367 39.4464C82.4341 38.1933 81.1687 37.1754 79.7299 36.4645C78.2911 35.7535 76.7139 35.3668 75.1094 35.3317H68.9047C69.2795 33.9675 70.0871 32.7619 71.206 31.8961C72.325 31.0304 73.6948 30.5514 75.1094 30.5312ZM75.1094 174.219C73.3772 174.219 71.7159 173.531 70.4911 172.306C69.2662 171.081 68.5781 169.42 68.5781 167.688V38.5973H75.1094C76.3094 38.6375 77.4842 38.9529 78.543 39.5191C79.6018 40.0853 80.5164 40.8872 81.2161 41.863C82.2292 43.1287 83.5103 44.1541 84.9671 44.8656C86.4239 45.5771 88.0203 45.9568 89.6414 45.9777H118.705C120.32 45.9268 121.904 45.5199 123.344 44.7861C124.783 44.0522 126.043 43.0095 127.033 41.7323C127.733 40.7566 128.647 39.9547 129.706 39.3885C130.765 38.8223 131.94 38.5069 133.14 38.4667H139.671V167.198C139.383 166.518 139.022 165.872 138.593 165.271L138.365 164.977C137.937 164.43 137.456 163.926 136.928 163.475L136.634 163.214C136.063 162.782 135.451 162.41 134.805 162.103H134.544C133.853 161.803 133.13 161.584 132.388 161.45C130.594 161.148 128.751 161.351 127.065 162.038C126.626 160.166 125.645 158.466 124.246 157.148C122.846 155.829 121.09 154.952 119.195 154.625C117.552 154.37 115.872 154.515 114.297 155.05V119.062C114.356 116.678 113.569 114.349 112.074 112.49C110.579 110.631 108.475 109.361 106.133 108.906C104.717 108.667 103.265 108.742 101.881 109.125C100.497 109.509 99.2139 110.193 98.1233 111.128C97.0327 112.062 96.1611 113.226 95.57 114.535C94.979 115.844 94.683 117.267 94.7031 118.703V157.891C91.8768 155.771 88.4392 154.625 84.9062 154.625C84.0402 154.625 83.2095 154.969 82.5971 155.581C81.9847 156.194 81.6406 157.025 81.6406 157.891V174.219H75.1094Z" fill="#190933"/>
<path d="M120.828 120.336C121.261 120.336 121.676 120.164 121.983 119.858C122.289 119.551 122.461 119.136 122.461 118.703C122.461 113.94 120.569 109.371 117.2 106.003C113.832 102.634 109.264 100.742 104.5 100.742C99.7365 100.742 95.168 102.634 91.7997 106.003C88.4314 109.371 86.5391 113.94 86.5391 118.703C86.5391 119.136 86.7111 119.551 87.0173 119.858C87.3235 120.164 87.7388 120.336 88.1719 120.336C88.6049 120.336 89.0202 120.164 89.3264 119.858C89.6327 119.551 89.8047 119.136 89.8047 118.703C89.8047 114.806 91.3529 111.068 94.1088 108.312C96.8648 105.556 100.603 104.008 104.5 104.008C108.397 104.008 112.135 105.556 114.891 108.312C117.647 111.068 119.195 114.806 119.195 118.703C119.195 119.136 119.367 119.551 119.674 119.858C119.98 120.164 120.395 120.336 120.828 120.336Z" fill="#190933"/>
<path d="M87.1595 140.387C87.4979 140.654 87.9281 140.776 88.3563 140.727C88.7846 140.678 89.1761 140.462 89.4455 140.126C89.7143 139.782 89.8376 139.347 89.7887 138.913C89.7399 138.479 89.5228 138.082 89.1842 137.807C85.2251 134.634 82.3489 130.311 80.9531 125.433C79.5572 120.555 79.7105 115.365 81.3918 110.578C83.0731 105.791 86.1994 101.645 90.3389 98.7111C94.4783 95.7777 99.4265 94.2022 104.5 94.2022C109.573 94.2022 114.522 95.7777 118.661 98.7111C122.801 101.645 125.927 105.791 127.608 110.578C129.29 115.365 129.443 120.555 128.047 125.433C126.651 130.311 123.775 134.634 119.816 137.807C119.474 138.076 119.252 138.469 119.2 138.901C119.148 139.332 119.27 139.767 119.538 140.109C119.807 140.451 120.2 140.673 120.632 140.725C121.064 140.777 121.498 140.655 121.84 140.387C126.332 136.794 129.596 131.894 131.182 126.365C132.768 120.836 132.597 114.951 130.693 109.524C128.789 104.096 125.246 99.3941 120.554 96.0675C115.862 92.7409 110.252 90.9541 104.5 90.9541C98.7482 90.9541 93.1384 92.7409 88.4462 96.0675C83.7539 99.3941 80.2109 104.096 78.307 109.524C76.4031 114.951 76.2322 120.836 77.8181 126.365C79.4039 131.894 82.6682 136.794 87.1595 140.387Z" fill="#190933"/>
</g>
</g>
<defs>
<clipPath id="clip0_1_5">
<rect width="855" height="256" fill="white"/>
</clipPath>
<clipPath id="clip1_1_5">
<rect width="209" height="209" fill="white" transform="translate(0 24)"/>
</clipPath>
</defs>
</svg>
