<svg width="200" height="200" viewBox="0 0 200 200" fill="none" xmlns="http://www.w3.org/2000/svg">
<g clip-path="url(#clip0)">
<path d="M184.187 40.2727C183.733 38.7193 182.109 37.8267 180.553 38.2814C178.999 38.7346 178.108 40.3612 178.561 41.9145C179.201 44.1011 179.524 46.3747 179.524 48.6726C179.524 52.939 178.398 57.1306 176.266 60.7942C174.193 64.3572 171.222 67.3586 167.674 69.4734L166.447 70.2028C165.559 70.7323 165.016 71.6875 165.016 72.7205V76.4208H158.166V64.5113C161.307 63.3699 163.562 60.3624 163.562 56.83V50.432C163.562 45.923 159.895 42.2548 155.389 42.2548H155.086C150.58 42.2548 146.913 45.923 146.913 50.432V56.83C146.913 60.3624 149.167 63.3699 152.307 64.5097V76.4208H145.459V72.7205C145.459 71.6875 144.914 70.7323 144.028 70.2028L142.801 69.4734C139.252 67.3586 136.281 64.3572 134.209 60.7942C132.077 57.1306 130.949 52.939 130.949 48.6726C130.949 35.3212 141.844 24.46 155.237 24.46C161.593 24.46 167.61 26.9029 172.177 31.3402C173.337 32.4663 175.192 32.4388 176.32 31.2791C177.447 30.1195 177.42 28.264 176.259 27.1364C170.593 21.6325 163.127 18.6006 155.237 18.6006C138.614 18.6006 125.09 32.0909 125.09 48.6726C125.09 53.972 126.492 59.1829 129.143 63.7407C131.676 68.094 135.287 71.7699 139.599 74.3852V76.8968C138.042 77.6583 136.964 79.2528 136.964 81.1006V94.4963C136.964 97.0751 139.062 99.1747 141.641 99.1747H145.997V103.293C145.997 106.104 148.282 108.389 151.092 108.389H159.382C162.192 108.389 164.479 106.104 164.479 103.293V99.1747H168.834C171.413 99.1747 173.512 97.0751 173.512 94.4963V81.1006C173.512 79.2528 172.433 77.6583 170.875 76.8968V74.3852C175.188 71.7699 178.799 68.094 181.332 63.7407C183.983 59.1829 185.385 53.972 185.385 48.6726C185.384 45.8192 184.981 42.9933 184.187 40.2727V40.2727ZM152.772 50.432C152.772 49.1533 153.81 48.1142 155.086 48.1142H155.389C156.665 48.1142 157.702 49.1533 157.702 50.432V56.83C157.702 58.1087 156.665 59.1478 155.389 59.1478H155.086C153.81 59.1478 152.772 58.1087 152.772 56.83V50.432ZM158.618 102.53H151.855V99.1747H158.618V102.53ZM167.651 93.3153H142.822V82.2801H167.651V93.3153Z" fill="white"/>
<path d="M155.237 15.0147C156.856 15.0147 158.167 13.7024 158.167 12.085V7.22657C158.167 5.60761 156.856 4.29688 155.237 4.29688C153.618 4.29688 152.308 5.60761 152.308 7.22657V12.085C152.308 13.7024 153.62 15.0147 155.237 15.0147Z" fill="white"/>
<path d="M137.351 16.5646C137.837 17.6525 138.905 18.298 140.025 18.298C140.425 18.298 140.833 18.2156 141.222 18.0432C142.697 17.3809 143.359 15.6491 142.699 14.172L140.712 9.73626C140.051 8.25921 138.318 7.59851 136.841 8.25921C135.365 8.91992 134.703 10.6533 135.365 12.1304L137.351 16.5646Z" fill="white"/>
<path d="M121.895 23.4923L125.522 26.7348C126.081 27.2338 126.78 27.481 127.474 27.481C128.28 27.481 129.081 27.1514 129.659 26.5044C130.738 25.2975 130.634 23.445 129.429 22.3662L125.802 19.1237C124.595 18.0449 122.742 18.1487 121.665 19.3557C120.586 20.5611 120.69 22.4135 121.895 23.4923Z" fill="white"/>
<path d="M114.238 39.3401L118.875 40.8278C119.173 40.9224 119.473 40.9682 119.771 40.9682C121.01 40.9682 122.16 40.1763 122.559 38.9327C123.053 37.3915 122.205 35.7421 120.663 35.2477L116.026 33.7615C114.485 33.2671 112.836 34.1155 112.341 35.6566C111.848 37.1978 112.697 38.8472 114.238 39.3401V39.3401Z" fill="white"/>
<path d="M113.4 56.9425C113.507 56.9425 113.612 56.9364 113.721 56.9242L118.562 56.3977C120.171 56.2238 121.333 54.7788 121.158 53.169C120.984 51.5607 119.54 50.3964 117.929 50.5734L113.087 51.0999C111.478 51.2738 110.316 52.7204 110.49 54.3286C110.655 55.8301 111.925 56.9425 113.4 56.9425Z" fill="white"/>
<path d="M117.488 68.1303C116.09 68.9436 115.617 70.738 116.432 72.1357C116.977 73.0695 117.958 73.5914 118.967 73.5914C119.467 73.5914 119.974 73.4632 120.439 73.1931L124.644 70.7426C126.044 69.9278 126.517 68.1348 125.702 66.7371C124.887 65.3379 123.094 64.8649 121.695 65.6797L117.488 68.1303Z" fill="white"/>
<path d="M169.252 18.0417C169.641 18.2156 170.047 18.298 170.449 18.298C171.567 18.298 172.637 17.6526 173.123 16.5646L175.11 12.1289C175.771 10.6519 175.11 8.91845 173.633 8.25775C172.158 7.59704 170.423 8.25775 169.762 9.7348L167.777 14.1705C167.114 15.6476 167.775 17.381 169.252 18.0417Z" fill="white"/>
<path d="M183 27.481C183.695 27.481 184.393 27.2338 184.952 26.7348L188.579 23.4923C189.784 22.4135 189.888 20.5611 188.809 19.3557C187.731 18.1487 185.878 18.0449 184.673 19.1237L181.046 22.3662C179.84 23.445 179.737 25.2975 180.815 26.5044C181.394 27.1514 182.196 27.481 183 27.481Z" fill="white"/>
<path d="M187.915 38.9327C188.315 40.1763 189.466 40.9682 190.705 40.9682C191.001 40.9682 191.303 40.9224 191.6 40.8278L196.237 39.3401C197.777 38.8472 198.625 37.1978 198.133 35.6566C197.638 34.1155 195.987 33.2671 194.448 33.7615L189.81 35.2477C188.269 35.7421 187.421 37.3915 187.915 38.9327V38.9327Z" fill="white"/>
<path d="M197.387 51.0999L192.545 50.5735C190.934 50.3934 189.49 51.5607 189.315 53.169C189.141 54.7788 190.302 56.2238 191.912 56.3993L196.753 56.9257C196.862 56.9364 196.968 56.9425 197.074 56.9425C198.549 56.9425 199.819 55.8302 199.982 54.3302C200.158 52.7204 198.996 51.2754 197.387 51.0999Z" fill="white"/>
<path d="M192.984 68.1306L188.779 65.6801C187.381 64.8668 185.587 65.3383 184.772 66.736C183.957 68.1352 184.43 69.9281 185.829 70.7429L190.035 73.1935C190.499 73.4636 191.007 73.5917 191.507 73.5917C192.516 73.5917 193.497 73.0699 194.042 72.1361C194.855 70.7383 194.382 68.9439 192.984 68.1306V68.1306Z" fill="white"/>
<path d="M32.6431 71.8462H62.3565C63.974 71.8462 65.2862 70.5339 65.2862 68.9165C65.2862 67.2975 63.974 65.9868 62.3565 65.9868H32.6431C31.0241 65.9868 29.7134 67.2975 29.7134 68.9165C29.7134 70.5339 31.0256 71.8462 32.6431 71.8462Z" fill="white"/>
<path d="M18.9546 145.566H76.0439C77.6628 145.566 78.9736 144.255 78.9736 142.636C78.9736 141.019 77.6628 139.707 76.0439 139.707H18.9546C17.3372 139.707 16.0249 141.019 16.0249 142.636C16.0249 144.255 17.3372 145.566 18.9546 145.566Z" fill="white"/>
<path d="M114.653 114.321C114.653 104.74 106.864 96.9453 97.2902 96.9453C87.7153 96.9453 79.9272 104.74 79.9272 114.321C79.9272 123.902 87.7153 131.696 97.2902 131.696C106.864 131.696 114.653 123.902 114.653 114.321V114.321ZM97.2887 102.805C103.43 102.805 108.461 107.646 108.777 113.716C108.306 113.774 107.829 113.811 107.35 113.811C101.209 113.811 96.1763 108.968 95.8635 102.898C96.3305 102.838 96.8065 102.805 97.2887 102.805V102.805ZM85.7866 114.321C85.7866 110.629 87.5338 107.34 90.2407 105.231C91.6384 113.417 98.7764 119.67 107.35 119.67C107.392 119.67 107.433 119.667 107.474 119.667C105.545 123.331 101.706 125.836 97.2887 125.836C90.9472 125.836 85.7866 120.67 85.7866 114.321V114.321Z" fill="white"/>
<path d="M168.19 160.571L153.357 152.486C151.384 151.41 148.201 150.6 145.954 150.6H94.9998V141.295C95.7597 141.331 96.5226 141.356 97.2886 141.356C114.728 141.356 130.962 131.947 139.658 116.803C140.537 115.272 140.537 113.37 139.658 111.836C130.963 96.6933 114.728 87.2862 97.2886 87.2862C96.5226 87.2862 95.7597 87.3106 94.9998 87.3457V50.9443C94.9998 48.2527 92.8086 46.0615 90.117 46.0615H36.3282C34.7092 46.0615 33.3985 47.3738 33.3985 48.9912C33.3985 50.6102 34.7092 51.9209 36.3282 51.9209H89.1404V87.9775C87.0423 88.3345 84.9809 88.8274 82.9637 89.4499V86.8895C82.9637 84.1963 80.774 82.0067 78.0808 82.0067H16.919C14.2258 82.0067 12.0361 84.1963 12.0361 86.8895V127.702C12.0361 130.394 14.2258 132.585 16.919 132.585H69.4184C75.2854 136.662 82.0146 139.45 89.1404 140.665V150.6H53.9078C51.6724 150.6 49.7178 151.805 48.6481 153.596H18.9545C17.3371 153.596 16.0248 154.909 16.0248 156.526C16.0248 158.145 17.3371 159.456 18.9545 159.456H47.7814V167.488H18.9545C17.3371 167.488 16.0248 168.799 16.0248 170.418C16.0248 172.035 17.3371 173.347 18.9545 173.347H47.8272C48.1843 176.382 50.7737 178.748 53.9078 178.748H89.1404V189.999H5.85938V51.9209H22.2656C23.8846 51.9209 25.1953 50.6102 25.1953 48.9912C25.1953 47.3738 23.8846 46.0615 22.2656 46.0615H4.88282C2.18964 46.0615 0 48.2527 0 50.9443V190.974C0 193.668 2.18964 195.857 4.88282 195.857H90.117C92.8086 195.857 94.9998 193.668 94.9998 190.974V178.748H145.954C148.201 178.748 151.384 177.936 153.357 176.86L168.192 168.774C169.896 167.844 170.874 166.35 170.874 164.673C170.874 162.997 169.896 161.502 168.19 160.571ZM66.3178 172.888H53.9078C53.769 172.888 53.6408 172.765 53.6408 172.63V156.717C53.6408 156.583 53.7675 156.459 53.9078 156.459H66.3178V172.888ZM17.8955 126.726V87.8661H77.1043V91.6762C67.9322 95.8525 60.0922 102.83 54.9225 111.836C54.0421 113.37 54.0421 115.274 54.9225 116.804C57.0237 120.465 59.5689 123.787 62.4634 126.726H17.8955ZM60.2555 114.32C67.9658 101.245 82.1092 93.1456 97.2901 93.1456C112.47 93.1456 126.613 101.247 134.325 114.32C126.611 127.394 112.468 135.496 97.2901 135.496C82.1107 135.496 67.9673 127.397 60.2555 114.32V114.32ZM141.736 161.743H129.688C128.069 161.743 126.758 163.055 126.758 164.673C126.758 166.292 128.069 167.602 129.688 167.602H141.736V172.888H72.1772V167.602H116.016C117.633 167.602 118.945 166.292 118.945 164.673C118.945 163.055 117.633 161.743 116.016 161.743H72.1772V156.459H141.736V161.743ZM153.888 169.897L150.553 171.716C149.846 172.101 148.676 172.473 147.595 172.69V156.656C148.677 156.874 149.846 157.245 150.553 157.629L153.888 159.448V169.897ZM159.747 166.704V162.643L163.472 164.673L159.747 166.704Z" fill="white"/>
</g>
<defs>
<clipPath id="clip0">
<rect width="200" height="200" fill="white"/>
</clipPath>
</defs>
</svg>
