<svg width="200" height="200" viewBox="0 0 200 200" fill="none" xmlns="http://www.w3.org/2000/svg">
<g clip-path="url(#clip0)">
<path d="M90.909 31.0382L90.909 136.362C90.909 141.383 94.9793 145.453 99.9999 145.453C105.021 145.453 109.091 141.383 109.091 136.362L109.091 31.0382L120.844 42.7921C124.394 46.3424 130.15 46.3424 133.701 42.7921C137.251 39.243 137.251 33.4867 133.701 29.9358L106.43 2.66485C106.219 2.45394 105.999 2.25515 105.769 2.06606C105.713 2.02 105.652 1.9806 105.594 1.93576C105.418 1.79697 105.241 1.6606 105.054 1.53576C105 1.49939 104.942 1.4697 104.887 1.43394C104.692 1.30909 104.495 1.18667 104.29 1.07636C104.249 1.05515 104.206 1.03757 104.165 1.01636C103.943 0.901817 103.718 0.791514 103.485 0.69515C103.456 0.683029 103.426 0.674544 103.397 0.663029C103.152 0.564241 102.904 0.472726 102.649 0.39515C102.617 0.384847 102.584 0.379392 102.551 0.370302C102.301 0.296968 102.048 0.229695 101.789 0.17818C101.712 0.163029 101.633 0.156362 101.555 0.142423C101.341 0.104847 101.126 0.0672712 100.907 0.0460591C100.607 0.01515 100.304 -1.57619e-06 100 -1.58949e-06C99.6957 -1.60279e-06 99.3927 0.0151499 99.0921 0.046059C98.8703 0.0672711 98.6539 0.106059 98.4375 0.143029C98.3624 0.156362 98.2854 0.163029 98.2109 0.17818C97.9497 0.230301 97.6945 0.296968 97.4418 0.370907C97.4121 0.379998 97.3806 0.385453 97.3509 0.394544C97.0945 0.472726 96.8442 0.564241 96.5969 0.664241C96.5703 0.67515 96.5418 0.683029 96.5151 0.694544C96.2806 0.791513 96.0539 0.902422 95.8303 1.01818C95.7909 1.03818 95.7496 1.05515 95.7103 1.07576C95.5036 1.18727 95.3048 1.3103 95.1078 1.43697C95.0545 1.47091 94.9981 1.5 94.946 1.53515C94.7587 1.6606 94.5806 1.79818 94.4036 1.93636C94.3466 1.9806 94.2866 2.02 94.2309 2.06545C94.0012 2.25515 93.7806 2.45394 93.5703 2.66424L66.2993 29.9352C64.5236 31.7103 63.6363 34.037 63.6363 36.3636C63.6363 38.6903 64.5236 41.017 66.2993 42.7915C69.8496 46.3418 75.6054 46.3418 79.1557 42.7915L90.909 31.0382Z" fill="white"/>
<path d="M174.364 125.636C174.364 100.821 162.054 77.7338 141.435 63.8762C137.269 61.0762 131.62 62.1841 128.819 66.3508C126.019 70.5181 127.126 76.1659 131.294 78.9672C146.879 89.4405 156.183 106.887 156.183 125.636C156.182 156.614 130.979 181.818 100 181.818C69.0206 181.818 43.8176 156.614 43.8176 125.636C43.8176 106.942 53.08 89.5241 68.594 79.0429C72.7546 76.2314 73.8479 70.5817 71.0376 66.4205C68.2267 62.2605 62.5758 61.1659 58.4158 63.9768C37.8897 77.8441 25.6358 100.894 25.6358 125.636C25.6358 166.64 58.9952 200 100 200C141.005 200 174.364 166.64 174.364 125.636Z" fill="white"/>
</g>
<defs>
<clipPath id="clip0">
<rect width="200" height="200" fill="white"/>
</clipPath>
</defs>
</svg>
