<svg width="200" height="200" viewBox="0 0 200 200" fill="none" xmlns="http://www.w3.org/2000/svg">
<g clip-path="url(#clip0)">
<path d="M181.25 25H18.7501C8.41067 25 0 33.4107 0 43.7501V156.25C0 166.59 8.41067 175 18.7501 175H181.25C191.589 175 200 166.59 200 156.25V43.7501C200 33.4107 191.589 25 181.25 25V25ZM181.25 37.4999C182.099 37.4999 182.907 37.6761 183.645 37.9838L100 110.48L16.3542 37.9838C17.0927 37.6765 17.9005 37.4999 18.7497 37.4999H181.25ZM181.25 162.5H18.7501C15.3017 162.5 12.4999 159.699 12.4999 156.25V51.1901L95.9045 123.474C97.0826 124.493 98.5413 125 100 125C101.459 125 102.917 124.494 104.096 123.474L187.5 51.1901V156.25C187.5 159.699 184.698 162.5 181.25 162.5V162.5Z" fill="white"/>
</g>
<defs>
<clipPath id="clip0">
<rect width="200" height="200" fill="white"/>
</clipPath>
</defs>
</svg>
