<svg width="200" height="200" viewBox="0 0 200 200" fill="none" xmlns="http://www.w3.org/2000/svg">
<g clip-path="url(#clip0)">
<path d="M101.799 83.645H0V94.5375H8.70329V193.574H80.6726V94.5375H101.799V83.645Z" fill="white"/>
<path d="M154.442 133.099C154.46 133.099 154.494 133.111 154.516 133.111C167.792 133.497 175.369 129.541 176.544 119.023L181.93 70.595C182.934 61.5721 175.739 54.6872 168.552 52.0531L168.494 52.0344C168.494 52.0344 165.931 51.2009 163.587 50.8813C161.144 50.5556 158.739 50.9959 158.739 50.9959C153.125 51.6506 147.578 55.6208 147.578 55.6208C137.252 62.9753 121.244 64.5644 99.9636 60.3384C94.61 59.2613 89.4057 62.7562 88.3424 68.1077C87.2787 73.4604 90.7569 78.6615 96.1113 79.7256C105.033 81.5046 113.33 82.3845 120.984 82.3845C127.94 82.3845 134.189 81.6144 140.063 80.1493L140.016 80.8325L136.585 111.699C118.608 112.348 107.283 116.051 102.844 122.779C96.8399 131.92 87.0855 168.775 84.2408 180.081C82.7705 185.922 86.3199 191.848 92.161 193.322C93.0494 193.545 93.946 193.657 94.8288 193.657C99.7099 193.657 104.162 190.354 105.404 185.409C110.417 165.493 117.344 144.85 120.506 138.315C123.127 132.631 140.461 132.329 154.442 133.099Z" fill="white"/>
<path d="M160.974 49.6517C173.169 49.6517 183.055 39.7655 183.055 27.5703C183.055 15.375 173.169 5.48877 160.974 5.48877C148.778 5.48877 138.892 15.375 138.892 27.5703C138.892 39.7655 148.778 49.6517 160.974 49.6517Z" fill="white"/>
<path d="M197.067 111.678L200 73.6559C200.007 73.4404 199.926 73.231 199.777 73.0757C199.627 72.9204 199.421 72.8325 199.205 72.8325H187.137C186.708 72.8325 186.357 73.1716 186.341 73.6002L183.614 111.65C183.255 123.381 179.799 137.808 160.096 137.808C159.816 137.808 138.307 137.76 138.307 137.76C138.306 137.76 138.306 137.76 138.306 137.76C138.095 137.76 137.893 137.844 137.744 137.993C137.595 138.142 137.511 138.345 137.511 138.556V150.313C137.511 150.752 137.867 151.108 138.306 151.108L158.086 151.108V178.132H151.876C143.746 178.132 136.878 185.269 136.878 193.716C136.878 194.155 137.234 194.511 137.673 194.511H145.507C145.947 194.511 146.303 194.155 146.303 193.716C146.303 190.608 148.853 187.983 151.873 187.983H177.629C180.65 187.983 183.202 190.608 183.202 193.716C183.202 194.155 183.558 194.511 183.997 194.511H191.834C192.273 194.511 192.63 194.155 192.63 193.716C192.63 185.269 185.76 178.132 177.628 178.132H171.424V149.658C190.846 149.133 195.352 129.887 197.067 111.678Z" fill="white"/>
<path d="M82.761 72.034H45.467L32.8447 25.779C32.7557 25.4537 32.4206 25.2613 32.0957 25.3512L25.3654 27.1875C25.2092 27.2302 25.0767 27.3331 24.9966 27.4734C24.9161 27.614 24.8949 27.7804 24.9376 27.9365L39.0843 79.7756C39.1567 80.0408 39.3978 80.225 39.6727 80.225H82.7614C83.0985 80.225 83.3713 79.9521 83.3713 79.615V72.6435C83.3709 72.3069 83.0981 72.034 82.761 72.034Z" fill="white"/>
</g>
<defs>
<clipPath id="clip0">
<rect width="200" height="200" fill="white"/>
</clipPath>
</defs>
</svg>
