<svg width="200" height="200" viewBox="0 0 200 200" fill="none" xmlns="http://www.w3.org/2000/svg">
<path d="M35.6299 158.767C34.9131 158.767 34.2257 158.483 33.7188 157.976C33.212 157.469 32.9272 156.781 32.9272 156.065V33.3376C32.9323 28.3517 34.9151 23.5713 38.4408 20.0457C41.9664 16.5201 46.7467 14.5372 51.7327 14.5322H174.611C175.328 14.5322 176.015 14.817 176.522 15.3238C177.029 15.8307 177.314 16.5181 177.314 17.2349C177.314 17.9517 177.029 18.6392 176.522 19.146C176.015 19.6529 175.328 19.9376 174.611 19.9376H51.7327C48.1801 19.9419 44.7742 21.3551 42.2622 23.8671C39.7501 26.3792 38.3369 29.7851 38.3327 33.3376V156.065C38.3327 156.781 38.0479 157.469 37.5411 157.976C37.0342 158.483 36.3468 158.767 35.6299 158.767V158.767Z" fill="white"/>
<path d="M191.892 51.7138H157.332C156.616 51.7138 155.928 51.429 155.421 50.9222C154.915 50.4153 154.63 49.7279 154.63 49.0111V34.5165C154.599 31.8728 155.093 29.2493 156.084 26.7979C157.074 24.3466 158.541 22.1161 160.4 20.2358C162.258 18.3555 164.471 16.8626 166.911 15.8438C169.351 14.8249 171.968 14.3003 174.612 14.3003C177.256 14.3003 179.874 14.8249 182.313 15.8438C184.753 16.8626 186.966 18.3555 188.825 20.2358C190.683 22.1161 192.15 24.3466 193.141 26.7979C194.131 29.2493 194.625 31.8728 194.595 34.5165V49.0111C194.595 49.7279 194.31 50.4153 193.803 50.9222C193.296 51.429 192.609 51.7138 191.892 51.7138ZM160.035 46.3084H189.189V34.5165C189.216 32.5855 188.858 30.6685 188.137 28.8769C187.416 27.0853 186.347 25.4547 184.991 24.0799C183.634 22.7051 182.019 21.6135 180.237 20.8684C178.455 20.1233 176.543 19.7396 174.612 19.7396C172.681 19.7396 170.769 20.1233 168.987 20.8684C167.206 21.6135 165.59 22.7051 164.234 24.0799C162.878 25.4547 161.808 27.0853 161.087 28.8769C160.367 30.6685 160.009 32.5855 160.035 34.5165V46.3084Z" fill="white"/>
<path d="M134.403 185.465H31.5593C24.6253 185.457 17.9774 182.699 13.0743 177.795C8.17118 172.892 5.41314 166.245 5.40527 159.31V156.067C5.40527 155.35 5.69002 154.663 6.19688 154.156C6.70373 153.649 7.39117 153.365 8.10798 153.365H111.47C112.187 153.365 112.874 153.649 113.381 154.156C113.888 154.663 114.173 155.35 114.173 156.067V159.835C114.173 165.2 116.304 170.345 120.098 174.138C123.891 177.932 129.036 180.063 134.401 180.063C139.766 180.063 144.911 177.932 148.705 174.138C152.498 170.345 154.63 165.2 154.63 159.835V49.024C154.63 48.3072 154.914 47.6197 155.421 47.1129C155.928 46.606 156.616 46.3213 157.332 46.3213C158.049 46.3213 158.737 46.606 159.243 47.1129C159.75 47.6197 160.035 48.3072 160.035 49.024V159.835C160.023 166.629 157.318 173.141 152.514 177.945C147.709 182.749 141.197 185.453 134.403 185.465ZM10.8107 158.767V159.308C10.8164 164.809 13.0043 170.083 16.8941 173.973C20.784 177.863 26.0582 180.051 31.5593 180.056H118.673C115.589 177.663 113.094 174.596 111.377 171.09C109.66 167.585 108.768 163.733 108.767 159.829V158.765L10.8107 158.767Z" fill="white"/>
<path d="M96.6407 94.5946C96.0606 94.5917 95.4967 94.4021 95.0326 94.054C83.8975 85.8162 73.5894 75.6757 73.5894 57.3648V49.1648C73.588 48.8036 73.659 48.4458 73.7983 48.1125C73.9375 47.7792 74.1422 47.4772 74.4002 47.2243C74.6574 46.968 74.9652 46.768 75.304 46.6373C75.6427 46.5065 76.005 46.4478 76.3678 46.4648C79.8168 46.7092 83.2735 46.1111 86.4399 44.7222C89.6063 43.3332 92.3874 41.195 94.5434 38.4919C94.8042 38.1657 95.1392 37.9067 95.5205 37.7365C95.9019 37.5663 96.3184 37.4898 96.7353 37.5135C97.1508 37.5297 97.5568 37.6415 97.922 37.8403C98.2872 38.039 98.6016 38.3194 98.8407 38.6594C102.26 43.5243 108.065 46.0081 117.111 46.4675C117.804 46.5029 118.456 46.8032 118.934 47.3063C119.411 47.8093 119.677 48.4767 119.676 49.1702V57.3811C119.823 64.7603 117.818 72.0228 113.906 78.2811C109.713 84.4765 104.396 89.8311 98.2299 94.0675C97.7693 94.407 97.2129 94.5915 96.6407 94.5946V94.5946ZM78.9975 51.8432V57.3757C78.9975 69.8865 83.9759 78.7459 96.6407 88.5054C101.616 84.9182 105.916 80.4785 109.343 75.3919C112.702 69.9928 114.417 63.7328 114.279 57.3757V51.6757C107.675 51.435 101.379 48.8255 96.5407 44.3243C91.8471 48.9484 85.5829 51.6332 78.9975 51.8432V51.8432Z" fill="white"/>
<path d="M92.8513 73.4024C92.1346 73.4022 91.4472 73.1174 90.9405 72.6105L86.8378 68.5078C86.3455 67.998 86.073 67.3153 86.0792 66.6067C86.0854 65.898 86.3696 65.2202 86.8707 64.7191C87.3718 64.218 88.0497 63.9337 88.7583 63.9276C89.467 63.9214 90.1497 64.1938 90.6594 64.6861L92.8513 66.878L102.616 57.1132C103.126 56.6209 103.809 56.3484 104.517 56.3546C105.226 56.3608 105.904 56.645 106.405 57.1461C106.906 57.6472 107.19 58.3251 107.196 59.0337C107.203 59.7423 106.93 60.4251 106.438 60.9348L94.7621 72.6105C94.2554 73.1174 93.568 73.4022 92.8513 73.4024V73.4024Z" fill="white"/>
<path d="M137.181 113.513H56.0997C55.3829 113.513 54.6954 113.229 54.1886 112.722C53.6817 112.215 53.397 111.527 53.397 110.811C53.397 110.094 53.6817 109.406 54.1886 108.9C54.6954 108.393 55.3829 108.108 56.0997 108.108H137.181C137.898 108.108 138.585 108.393 139.092 108.9C139.599 109.406 139.883 110.094 139.883 110.811C139.883 111.527 139.599 112.215 139.092 112.722C138.585 113.229 137.898 113.513 137.181 113.513Z" fill="white"/>
<path d="M137.181 132.433H56.0997C55.3829 132.433 54.6954 132.148 54.1886 131.641C53.6817 131.134 53.397 130.447 53.397 129.73C53.397 129.013 53.6817 128.326 54.1886 127.819C54.6954 127.312 55.3829 127.027 56.0997 127.027H137.181C137.898 127.027 138.585 127.312 139.092 127.819C139.599 128.326 139.883 129.013 139.883 129.73C139.883 130.447 139.599 131.134 139.092 131.641C138.585 132.148 137.898 132.433 137.181 132.433Z" fill="white"/>
</svg>
