<svg width="200" height="200" viewBox="0 0 200 200" fill="none" xmlns="http://www.w3.org/2000/svg">
<path d="M170.282 29.0436C151.494 10.3256 126.5 0.0106812 99.8993 0C73.3582 0 48.3246 10.3058 29.4128 29.0192C10.4675 47.7646 0.0244141 72.6761 0 99.0738V99.1043V99.1226C0.00305176 115.1 4.20074 131.218 12.1689 145.93L0.273132 200L54.9652 187.56C68.8171 194.54 84.2728 198.221 99.8611 198.227H99.9008C126.437 198.227 151.471 187.92 170.386 169.205C189.348 150.444 199.796 125.565 199.808 99.1501C199.815 72.9218 189.331 48.024 170.282 29.0436V29.0436ZM99.8993 182.617H99.8642C85.8673 182.611 71.9986 179.097 59.7595 172.452L57.1732 171.048L20.8054 179.32L28.7048 143.419L27.182 140.793C19.6106 127.736 15.6097 113.322 15.6097 99.1058C15.6387 53.0899 53.447 15.6097 99.8962 15.6097C122.336 15.6189 143.42 24.3179 159.265 40.1016C175.349 56.1295 184.204 77.0981 184.196 99.1455C184.178 145.172 146.362 182.617 99.8993 182.617V182.617Z" fill="white"/>
<path d="M72.7158 55.4153H68.3365C66.8121 55.4153 64.3372 55.986 62.2437 58.2642C60.1486 60.5438 54.245 66.0538 54.245 77.2598C54.245 88.4659 62.4344 99.2935 63.5757 100.815C64.7186 102.335 79.3838 126.065 102.611 135.194C121.915 142.781 125.844 141.272 130.032 140.892C134.222 140.514 143.553 135.384 145.457 130.066C147.362 124.748 147.362 120.189 146.791 119.237C146.219 118.288 144.695 117.719 142.41 116.58C140.125 115.44 128.925 109.837 126.83 109.076C124.734 108.318 123.212 107.938 121.687 110.219C120.163 112.495 115.675 117.763 114.342 119.283C113.01 120.804 111.676 120.995 109.39 119.855C107.104 118.712 99.8199 116.264 91.0904 108.507C84.2957 102.469 79.5807 94.7693 78.2471 92.4896C76.915 90.2115 78.1052 88.9786 79.2511 87.8418C80.278 86.8225 81.665 85.4279 82.8079 84.0988C83.9493 82.7682 84.2743 81.8192 85.0372 80.2994C85.7986 78.7796 85.4172 77.449 84.8465 76.3107C84.2743 75.1709 79.8889 63.9084 77.8564 59.404H77.858C76.1459 55.6107 74.3439 55.4825 72.7158 55.4153V55.4153Z" fill="white"/>
</svg>
