<svg width="200" height="200" viewBox="0 0 200 200" fill="none" xmlns="http://www.w3.org/2000/svg">
<path d="M190.676 2.11353H9.32449C4.17478 2.11353 0 6.28831 0 11.438V38.9971C0 44.1468 4.17478 48.3216 9.32449 48.3216H37.0493V85.6195C32.1591 91.2142 11.6038 115.499 9.11728 131.579C9.10174 131.786 9.10174 131.994 9.11728 132.201V193.742C9.11728 196.031 10.9729 197.886 13.2615 197.886H63.4894C64.8456 197.884 66.1148 197.219 66.8877 196.104L88.1061 165.562C88.3713 165.169 88.5677 164.735 88.6863 164.277C88.6863 163.614 90.8827 156.237 93.3278 146.125H158.806C161.095 146.125 162.951 144.27 162.951 141.981V48.3216H190.676C195.825 48.3216 200 44.1468 200 38.9971V11.438C200 6.28831 195.825 2.11353 190.676 2.11353ZM93.535 102.072C90.4797 122.069 86.2593 141.871 80.8952 161.376L61.293 189.557H17.3643V132.698C18.9805 123.249 29.0924 108.744 37.0493 98.7567V141.981C37.0493 144.27 38.9049 146.125 41.1935 146.125H56.1542C56.6649 146.121 57.1711 146.023 57.6461 145.835L58.102 145.586C58.3988 145.44 58.677 145.26 58.9308 145.048L59.3038 144.633C59.496 144.403 59.6628 144.153 59.8011 143.887L60.0497 143.349C60.0497 143.349 60.0497 143.349 60.0497 143.058C64.194 127.725 73.2283 101.243 80.0663 95.3585C84.7078 91.2142 87.4016 90.7584 88.562 90.7584C89.4374 90.7387 90.2694 91.1391 90.7998 91.8359C92.83 94.8461 93.793 98.45 93.535 102.072ZM154.662 137.837H95.317C97.8865 126.606 100.497 113.676 101.782 103.067C102.288 97.1555 100.623 91.2629 97.0991 86.4898C95.0244 84.0665 92.0011 82.6606 88.8106 82.6357C83.5319 83.1009 78.593 85.4377 74.886 89.225C65.2714 97.5134 56.0713 127.725 53.1289 138.002H45.3378V29.5483H154.662V137.837ZM191.712 38.9556C191.712 39.528 191.248 39.9917 190.676 39.9917H162.951V29.5483H170.452C172.74 29.5483 174.596 27.6927 174.596 25.404C174.596 23.1154 172.74 21.2598 170.452 21.2598H29.5483C27.2596 21.2598 25.4041 23.1154 25.4041 25.404C25.4041 27.6927 27.2596 29.5483 29.5483 29.5483H37.0908V40.1989H9.32449C8.75207 40.1989 8.28844 39.7353 8.28844 39.1628V11.438C8.28844 10.8656 8.75207 10.402 9.32449 10.402H190.676C191.248 10.402 191.712 10.8656 191.712 11.438V38.9556Z" fill="white"/>
</svg>
